<mxfile host="65bd71144e">
    <diagram id="wGKMZqnqqxmAoZc1p-1p" name="Page-1">
        <mxGraphModel dx="749" dy="299" grid="1" gridSize="10" guides="1" tooltips="1" connect="1" arrows="1" fold="1" page="1" pageScale="1" pageWidth="850" pageHeight="1100" math="0" shadow="0">
            <root>
                <mxCell id="0"/>
                <mxCell id="1" parent="0"/>
                <mxCell id="89" style="edgeStyle=none;rounded=0;html=1;entryX=0.5;entryY=0;entryDx=0;entryDy=0;endArrow=none;endFill=0;endSize=20;startArrow=diamond;startFill=1;targetPerimeterSpacing=0;startSize=20;shadow=0;" parent="1" source="62" target="74" edge="1">
                    <mxGeometry relative="1" as="geometry"/>
                </mxCell>
                <mxCell id="62" value="&lt;b&gt;Storia&lt;/b&gt;" style="rounded=0;whiteSpace=wrap;html=1;shadow=0;" parent="1" vertex="1">
                    <mxGeometry x="465" y="330" width="120" height="60" as="geometry"/>
                </mxCell>
                <mxCell id="87" style="edgeStyle=none;rounded=0;html=1;entryX=0;entryY=0.5;entryDx=0;entryDy=0;endArrow=none;endFill=0;endSize=20;shadow=0;" parent="1" source="63" target="62" edge="1">
                    <mxGeometry relative="1" as="geometry"/>
                </mxCell>
                <mxCell id="88" style="edgeStyle=none;rounded=0;html=1;entryX=0.5;entryY=0;entryDx=0;entryDy=0;endArrow=none;endFill=0;endSize=20;shadow=0;" parent="1" source="63" target="68" edge="1">
                    <mxGeometry relative="1" as="geometry"/>
                </mxCell>
                <mxCell id="63" value="&lt;b&gt;Partita&lt;/b&gt;" style="rounded=0;whiteSpace=wrap;html=1;shadow=0;" parent="1" vertex="1">
                    <mxGeometry x="165" y="330" width="120" height="60" as="geometry"/>
                </mxCell>
                <mxCell id="70" style="edgeStyle=none;rounded=0;html=1;entryX=0.5;entryY=1;entryDx=0;entryDy=0;endArrow=block;endFill=0;endSize=20;shadow=0;" parent="1" source="64" target="114" edge="1">
                    <mxGeometry relative="1" as="geometry">
                        <Array as="points">
                            <mxPoint x="225" y="150"/>
                            <mxPoint x="425" y="150"/>
                        </Array>
                        <mxPoint x="425" y="110" as="targetPoint"/>
                    </mxGeometry>
                </mxCell>
                <mxCell id="84" style="edgeStyle=none;rounded=0;html=1;endArrow=none;endFill=0;endSize=20;shadow=0;" parent="1" source="64" target="63" edge="1">
                    <mxGeometry relative="1" as="geometry"/>
                </mxCell>
                <mxCell id="64" value="&lt;b&gt;Giocatore&lt;/b&gt;" style="rounded=0;whiteSpace=wrap;html=1;shadow=0;" parent="1" vertex="1">
                    <mxGeometry x="165" y="190" width="120" height="60" as="geometry"/>
                </mxCell>
                <mxCell id="69" style="edgeStyle=none;rounded=0;html=1;entryX=0.5;entryY=1;entryDx=0;entryDy=0;endArrow=block;endFill=0;endSize=20;shadow=0;" parent="1" source="65" target="114" edge="1">
                    <mxGeometry relative="1" as="geometry">
                        <mxPoint x="425" y="110" as="targetPoint"/>
                    </mxGeometry>
                </mxCell>
                <mxCell id="85" style="edgeStyle=none;rounded=0;html=1;entryX=0.25;entryY=0;entryDx=0;entryDy=0;endArrow=none;endFill=0;endSize=20;shadow=0;" parent="1" source="65" target="62" edge="1">
                    <mxGeometry relative="1" as="geometry">
                        <Array as="points">
                            <mxPoint x="425" y="290"/>
                            <mxPoint x="495" y="290"/>
                        </Array>
                    </mxGeometry>
                </mxCell>
                <mxCell id="65" value="&lt;b&gt;Scrittore&lt;/b&gt;" style="rounded=0;whiteSpace=wrap;html=1;shadow=0;" parent="1" vertex="1">
                    <mxGeometry x="365" y="190" width="120" height="60" as="geometry"/>
                </mxCell>
                <mxCell id="71" style="edgeStyle=none;rounded=0;html=1;exitX=0.5;exitY=0;exitDx=0;exitDy=0;endArrow=block;endFill=0;endSize=20;shadow=0;entryX=0.5;entryY=1;entryDx=0;entryDy=0;" parent="1" source="66" edge="1" target="114">
                    <mxGeometry relative="1" as="geometry">
                        <mxPoint x="425" y="110" as="targetPoint"/>
                        <Array as="points">
                            <mxPoint x="625" y="150"/>
                            <mxPoint x="425" y="150"/>
                        </Array>
                    </mxGeometry>
                </mxCell>
                <mxCell id="86" style="edgeStyle=none;rounded=0;html=1;entryX=0.75;entryY=0;entryDx=0;entryDy=0;endArrow=none;endFill=0;endSize=20;shadow=0;" parent="1" source="66" target="62" edge="1">
                    <mxGeometry relative="1" as="geometry">
                        <Array as="points">
                            <mxPoint x="625" y="290"/>
                            <mxPoint x="555" y="290"/>
                        </Array>
                    </mxGeometry>
                </mxCell>
                <mxCell id="66" value="&lt;b&gt;Visitatore&lt;/b&gt;" style="rounded=0;whiteSpace=wrap;html=1;shadow=0;" parent="1" vertex="1">
                    <mxGeometry x="565" y="190" width="120" height="60" as="geometry"/>
                </mxCell>
                <mxCell id="90" style="edgeStyle=none;rounded=0;html=1;entryX=0.5;entryY=0;entryDx=0;entryDy=0;endArrow=none;endFill=0;endSize=20;startSize=20;startArrow=diamond;startFill=0;shadow=0;" parent="1" source="68" target="76" edge="1">
                    <mxGeometry relative="1" as="geometry"/>
                </mxCell>
                <mxCell id="68" value="&lt;b&gt;Inventario&lt;/b&gt;" style="rounded=0;whiteSpace=wrap;html=1;shadow=0;" parent="1" vertex="1">
                    <mxGeometry x="165" y="470" width="120" height="60" as="geometry"/>
                </mxCell>
                <mxCell id="91" style="edgeStyle=none;rounded=0;html=1;exitX=0.5;exitY=1;exitDx=0;exitDy=0;entryX=0.5;entryY=0;entryDx=0;entryDy=0;endArrow=none;endFill=0;endSize=20;startSize=20;startArrow=diamond;startFill=1;shadow=0;" parent="1" source="74" target="134" edge="1">
                    <mxGeometry relative="1" as="geometry"/>
                </mxCell>
                <mxCell id="74" value="&lt;b&gt;Scenario&lt;/b&gt;" style="rounded=0;whiteSpace=wrap;html=1;shadow=0;" parent="1" vertex="1">
                    <mxGeometry x="465" y="470" width="120" height="60" as="geometry"/>
                </mxCell>
                <mxCell id="92" style="edgeStyle=none;rounded=0;html=1;entryX=0.5;entryY=1;entryDx=0;entryDy=0;endArrow=none;endFill=0;endSize=20;shadow=0;exitX=0;exitY=0.5;exitDx=0;exitDy=0;" parent="1" source="75" target="76" edge="1">
                    <mxGeometry relative="1" as="geometry">
                        <Array as="points">
                            <mxPoint x="225" y="776"/>
                        </Array>
                    </mxGeometry>
                </mxCell>
                <mxCell id="75" value="&lt;b&gt;Scelta&lt;/b&gt;" style="rounded=0;whiteSpace=wrap;html=1;shadow=0;" parent="1" vertex="1">
                    <mxGeometry x="465" y="746" width="120" height="60" as="geometry"/>
                </mxCell>
                <mxCell id="76" value="&lt;b&gt;Oggetto&lt;/b&gt;" style="rounded=0;whiteSpace=wrap;html=1;shadow=0;" parent="1" vertex="1">
                    <mxGeometry x="165" y="610" width="120" height="60" as="geometry"/>
                </mxCell>
                <mxCell id="132" style="edgeStyle=none;html=1;entryX=0.5;entryY=1;entryDx=0;entryDy=0;endArrow=none;endFill=0;rounded=0;startSize=6;endSize=20;" parent="1" source="79" target="75" edge="1">
                    <mxGeometry relative="1" as="geometry">
                        <Array as="points">
                            <mxPoint x="525" y="869"/>
                        </Array>
                    </mxGeometry>
                </mxCell>
                <mxCell id="79" value="&lt;b&gt;Indovinello&lt;br&gt;&lt;/b&gt;" style="rounded=0;whiteSpace=wrap;html=1;shadow=0;" parent="1" vertex="1">
                    <mxGeometry x="465" y="880" width="120" height="60" as="geometry"/>
                </mxCell>
                <mxCell id="80" style="edgeStyle=none;rounded=0;html=1;entryX=0.5;entryY=1;entryDx=0;entryDy=0;endArrow=block;endFill=0;endSize=20;shadow=0;exitX=0.5;exitY=0;exitDx=0;exitDy=0;" parent="1" source="81" target="79" edge="1">
                    <mxGeometry relative="1" as="geometry">
                        <Array as="points">
                            <mxPoint x="425" y="980"/>
                            <mxPoint x="525" y="980"/>
                        </Array>
                    </mxGeometry>
                </mxCell>
                <mxCell id="81" value="&lt;b&gt;Testuale&lt;/b&gt;" style="rounded=0;whiteSpace=wrap;html=1;shadow=0;" parent="1" vertex="1">
                    <mxGeometry x="365" y="1030" width="120" height="60" as="geometry"/>
                </mxCell>
                <mxCell id="82" style="edgeStyle=none;rounded=0;html=1;endArrow=block;endFill=0;endSize=20;shadow=0;exitX=0.5;exitY=0;exitDx=0;exitDy=0;" parent="1" source="83" target="79" edge="1">
                    <mxGeometry relative="1" as="geometry">
                        <mxPoint x="603" y="969" as="targetPoint"/>
                        <Array as="points">
                            <mxPoint x="625" y="980"/>
                            <mxPoint x="525" y="980"/>
                        </Array>
                    </mxGeometry>
                </mxCell>
                <mxCell id="83" value="&lt;b&gt;Numerico&lt;/b&gt;" style="rounded=0;whiteSpace=wrap;html=1;shadow=0;" parent="1" vertex="1">
                    <mxGeometry x="565" y="1030" width="120" height="60" as="geometry"/>
                </mxCell>
                <mxCell id="94" value="1...*" style="text;html=1;align=center;verticalAlign=middle;resizable=0;points=[];autosize=1;strokeColor=none;fillColor=none;shadow=0;" parent="1" vertex="1">
                    <mxGeometry x="620" y="247" width="40" height="30" as="geometry"/>
                </mxCell>
                <mxCell id="95" value="1...*" style="text;html=1;align=center;verticalAlign=middle;resizable=0;points=[];autosize=1;strokeColor=none;fillColor=none;shadow=0;" parent="1" vertex="1">
                    <mxGeometry x="550" y="308" width="40" height="30" as="geometry"/>
                </mxCell>
                <mxCell id="96" value="1" style="text;html=1;align=center;verticalAlign=middle;resizable=0;points=[];autosize=1;strokeColor=none;fillColor=none;shadow=0;" parent="1" vertex="1">
                    <mxGeometry x="402" y="247" width="30" height="30" as="geometry"/>
                </mxCell>
                <mxCell id="97" value="1...*" style="text;html=1;align=center;verticalAlign=middle;resizable=0;points=[];autosize=1;strokeColor=none;fillColor=none;shadow=0;" parent="1" vertex="1">
                    <mxGeometry x="461" y="308" width="40" height="30" as="geometry"/>
                </mxCell>
                <mxCell id="98" value="1" style="text;html=1;align=center;verticalAlign=middle;resizable=0;points=[];autosize=1;strokeColor=none;fillColor=none;shadow=0;" parent="1" vertex="1">
                    <mxGeometry x="203" y="247" width="30" height="30" as="geometry"/>
                </mxCell>
                <mxCell id="102" value="1...*" style="text;html=1;align=center;verticalAlign=middle;resizable=0;points=[];autosize=1;strokeColor=none;fillColor=none;shadow=0;" parent="1" vertex="1">
                    <mxGeometry x="191" y="308" width="40" height="30" as="geometry"/>
                </mxCell>
                <mxCell id="103" value="1" style="text;html=1;align=center;verticalAlign=middle;resizable=0;points=[];autosize=1;strokeColor=none;fillColor=none;shadow=0;" parent="1" vertex="1">
                    <mxGeometry x="203" y="385" width="30" height="30" as="geometry"/>
                </mxCell>
                <mxCell id="104" value="1" style="text;html=1;align=center;verticalAlign=middle;resizable=0;points=[];autosize=1;strokeColor=none;fillColor=none;shadow=0;" parent="1" vertex="1">
                    <mxGeometry x="203" y="447" width="30" height="30" as="geometry"/>
                </mxCell>
                <mxCell id="105" value="1...*" style="text;html=1;align=center;verticalAlign=middle;resizable=0;points=[];autosize=1;strokeColor=none;fillColor=none;shadow=0;" parent="1" vertex="1">
                    <mxGeometry x="279" y="355" width="40" height="30" as="geometry"/>
                </mxCell>
                <mxCell id="106" value="1" style="text;html=1;align=center;verticalAlign=middle;resizable=0;points=[];autosize=1;strokeColor=none;fillColor=none;shadow=0;" parent="1" vertex="1">
                    <mxGeometry x="443" y="355" width="30" height="30" as="geometry"/>
                </mxCell>
                <mxCell id="107" value="1...*" style="text;html=1;align=center;verticalAlign=middle;resizable=0;points=[];autosize=1;strokeColor=none;fillColor=none;shadow=0;" parent="1" vertex="1">
                    <mxGeometry x="490" y="445" width="40" height="30" as="geometry"/>
                </mxCell>
                <mxCell id="108" value="1...*" style="text;html=1;align=center;verticalAlign=middle;resizable=0;points=[];autosize=1;strokeColor=none;fillColor=none;shadow=0;" parent="1" vertex="1">
                    <mxGeometry x="490" y="723" width="40" height="30" as="geometry"/>
                </mxCell>
                <mxCell id="109" value="1...*" style="text;html=1;align=center;verticalAlign=middle;resizable=0;points=[];autosize=1;strokeColor=none;fillColor=none;shadow=0;" parent="1" vertex="1">
                    <mxGeometry x="190" y="587" width="40" height="30" as="geometry"/>
                </mxCell>
                <mxCell id="112" value="0 ... 1" style="text;html=1;align=center;verticalAlign=middle;resizable=0;points=[];autosize=1;strokeColor=none;fillColor=none;shadow=0;" parent="1" vertex="1">
                    <mxGeometry x="220" y="667" width="50" height="30" as="geometry"/>
                </mxCell>
                <mxCell id="114" value="&lt;b&gt;Utente&lt;/b&gt;" style="rounded=0;whiteSpace=wrap;html=1;shadow=0;" parent="1" vertex="1">
                    <mxGeometry x="365" y="40" width="120" height="60" as="geometry"/>
                </mxCell>
                <mxCell id="115" value="&lt;b&gt;Giocatore&lt;/b&gt;" style="rounded=0;whiteSpace=wrap;html=1;shadow=0;" parent="1" vertex="1">
                    <mxGeometry x="165" y="190" width="120" height="60" as="geometry"/>
                </mxCell>
                <mxCell id="116" value="&lt;b&gt;Scrittore&lt;/b&gt;" style="rounded=0;whiteSpace=wrap;html=1;shadow=0;" parent="1" vertex="1">
                    <mxGeometry x="365" y="190" width="120" height="60" as="geometry"/>
                </mxCell>
                <mxCell id="117" value="&lt;b&gt;Visitatore&lt;/b&gt;" style="rounded=0;whiteSpace=wrap;html=1;shadow=0;" parent="1" vertex="1">
                    <mxGeometry x="565" y="190" width="120" height="60" as="geometry"/>
                </mxCell>
                <mxCell id="118" value="&lt;b&gt;Storia&lt;/b&gt;" style="rounded=0;whiteSpace=wrap;html=1;shadow=0;" parent="1" vertex="1">
                    <mxGeometry x="465" y="330" width="120" height="60" as="geometry"/>
                </mxCell>
                <mxCell id="119" value="&lt;b&gt;Partita&lt;/b&gt;" style="rounded=0;whiteSpace=wrap;html=1;shadow=0;" parent="1" vertex="1">
                    <mxGeometry x="165" y="330" width="120" height="60" as="geometry"/>
                </mxCell>
                <mxCell id="120" value="gioca &amp;gt;" style="text;html=1;align=center;verticalAlign=middle;resizable=0;points=[];autosize=1;strokeColor=none;fillColor=none;shadow=0;" parent="1" vertex="1">
                    <mxGeometry x="219" y="278" width="60" height="30" as="geometry"/>
                </mxCell>
                <mxCell id="121" value="associa &amp;gt;" style="text;html=1;align=center;verticalAlign=middle;resizable=0;points=[];autosize=1;strokeColor=none;fillColor=none;shadow=0;" parent="1" vertex="1">
                    <mxGeometry x="345" y="334" width="70" height="30" as="geometry"/>
                </mxCell>
                <mxCell id="122" value="gestisce &amp;gt;" style="text;html=1;align=center;verticalAlign=middle;resizable=0;points=[];autosize=1;strokeColor=none;fillColor=none;shadow=0;" parent="1" vertex="1">
                    <mxGeometry x="419" y="263" width="80" height="30" as="geometry"/>
                </mxCell>
                <mxCell id="124" value="visualizza &amp;gt;" style="text;html=1;align=center;verticalAlign=middle;resizable=0;points=[];autosize=1;strokeColor=none;fillColor=none;shadow=0;" parent="1" vertex="1">
                    <mxGeometry x="542" y="263" width="90" height="30" as="geometry"/>
                </mxCell>
                <mxCell id="125" value="contiene &amp;gt;" style="text;html=1;align=center;verticalAlign=middle;resizable=0;points=[];autosize=1;strokeColor=none;fillColor=none;shadow=0;" parent="1" vertex="1">
                    <mxGeometry x="217" y="417" width="80" height="30" as="geometry"/>
                </mxCell>
                <mxCell id="126" value="&amp;lt; usa" style="text;html=1;align=center;verticalAlign=middle;resizable=0;points=[];autosize=1;strokeColor=none;fillColor=none;shadow=0;" parent="1" vertex="1">
                    <mxGeometry x="340" y="776" width="50" height="30" as="geometry"/>
                </mxCell>
                <mxCell id="128" value="&lt;b&gt;&lt;font style=&quot;font-size: 30px;&quot;&gt;Modello di dominio&lt;/font&gt;&lt;/b&gt;" style="text;html=1;align=center;verticalAlign=middle;resizable=0;points=[];autosize=1;strokeColor=none;fillColor=none;" parent="1" vertex="1">
                    <mxGeometry width="300" height="50" as="geometry"/>
                </mxCell>
                <mxCell id="134" value="&lt;b&gt;Scenario&lt;/b&gt;" style="rounded=0;whiteSpace=wrap;html=1;shadow=0;" vertex="1" parent="1">
                    <mxGeometry x="465" y="607" width="120" height="60" as="geometry"/>
                </mxCell>
                <mxCell id="135" value="1...*" style="text;html=1;align=center;verticalAlign=middle;resizable=0;points=[];autosize=1;strokeColor=none;fillColor=none;shadow=0;" vertex="1" parent="1">
                    <mxGeometry x="485" y="580" width="40" height="30" as="geometry"/>
                </mxCell>
                <mxCell id="136" style="edgeStyle=none;rounded=0;html=1;exitX=0.5;exitY=1;exitDx=0;exitDy=0;endArrow=none;endFill=0;endSize=20;startSize=20;startArrow=diamond;startFill=1;shadow=0;entryX=0.5;entryY=0;entryDx=0;entryDy=0;" edge="1" parent="1" source="134" target="75">
                    <mxGeometry relative="1" as="geometry">
                        <mxPoint x="535" y="540" as="sourcePoint"/>
                        <mxPoint x="610" y="730" as="targetPoint"/>
                    </mxGeometry>
                </mxCell>
                <mxCell id="139" value="1" style="text;html=1;align=center;verticalAlign=middle;resizable=0;points=[];autosize=1;strokeColor=none;fillColor=none;shadow=0;" vertex="1" parent="1">
                    <mxGeometry x="501" y="800" width="30" height="30" as="geometry"/>
                </mxCell>
                <mxCell id="140" value="1" style="text;html=1;align=center;verticalAlign=middle;resizable=0;points=[];autosize=1;strokeColor=none;fillColor=none;shadow=0;" vertex="1" parent="1">
                    <mxGeometry x="501" y="850" width="30" height="30" as="geometry"/>
                </mxCell>
            </root>
        </mxGraphModel>
    </diagram>
</mxfile>